<?xml version="1.0" encoding="utf-8"?>
<!-- Generator: Adobe Illustrator 25.0.0, SVG Export Plug-In . SVG Version: 6.00 Build 0)  -->
<svg version="1.1" id="Layer_1" xmlns="http://www.w3.org/2000/svg" xmlns:xlink="http://www.w3.org/1999/xlink" x="0px" y="0px"
	 viewBox="0 0 300 270" style="enable-background:new 0 0 300 270;" xml:space="preserve">
<style type="text/css">
	.st0{fill:#FFFFFF;}
</style>
<path class="st0" d="M259.6,179.6c-9-1.7-17.6-0.6-25.1,2.5c-11.6,4.8-24.7,4-35.5-2.3l-17.8-10.3c-12.5-7.2-20.2-20.5-20.2-34.9
	v-19.4c0-12.7,5.3-25.3,15.4-33c12.5-9.5,19.8-25.5,16.7-42.9C190,22,176.2,7.8,158.8,4.4c-28.1-5.5-52.6,15.9-52.6,43
	c0,14.4,7,27.2,17.7,35.1c9.8,7.3,15.2,19.2,15.2,31.5v20.6c0,14.4-7.7,27.7-20.2,34.9l-17.8,10.3c-10.8,6.3-24,7.1-35.5,2.3
	c-7.5-3.1-16.1-4.2-25.1-2.5c-18,3.3-32.2,18.2-34.9,36.3c-4.4,29.5,20.7,54.5,50.2,50c14.6-2.2,27.2-12.2,33.1-25.8
	c1.7-3.8,2.7-7.5,3.3-11.1c2-12.6,8.7-23.9,19.8-30.2l18-10.4c12.5-7.2,27.8-7.2,40.3,0l18,10.4c11,6.4,17.8,17.7,19.8,30.2
	c0.6,3.6,1.6,7.3,3.3,11.1c6,13.5,18.5,23.5,33.1,25.8c29.5,4.5,54.6-20.5,50.2-50C291.8,197.8,277.6,182.9,259.6,179.6z"/>
</svg>
